#N canvas 704 146 450 300 10;
#X obj 14 10 hsl 420 15 2 0.0008 1 0 empty empty empty -2 -8 0 10 -1
-262144 -1 27515 1;
#X text 151 38 andante;
#X text 133 24 adagio;
#X obj 219 231 tgl 15 0 _click_track_midi empty midi_click 19 7 0 10
-262144 -1 -1 0 1;
#X text 53 38 grave;
#X obj 219 193 tgl 15 0 STOP_BEAT empty STOP 17 7 0 10 -262144 -1 -1
1 1;
#X text 204 38 allegro;
#X text 270 38 presto;
#X text 3 25 larghissimo;
#X text 94 24 lento;
#X text 108 37 largo;
#X text 179 24 moderato;
#X text 238 24 vivace;
#X text 296 24 prestissimo;
#X obj 219 212 tgl 15 0 _click_track_audio empty audio_click 19 7 0
10 -262144 -1 -1 0 1;
#N canvas 92 127 450 300 midireset 0;
#X obj 237 238 noteout;
#X msg 339 212 1;
#X obj 185 83 sel 128;
#X msg 187 104 0;
#X obj 111 138 i;
#X obj 150 141 + 1;
#X obj 105 101 tgl 15 0 empty empty empty 17 7 0 10 -262144 -1 -1 0
1;
#X floatatom 113 164 5 0 0 0 - - -;
#X obj 106 51 t b 0;
#X obj 203 39 inlet;
#X obj 108 118 metro 2;
#X connect 1 0 0 2;
#X connect 2 0 3 0;
#X connect 3 0 6 0;
#X connect 4 0 5 0;
#X connect 4 0 2 0;
#X connect 4 0 7 0;
#X connect 4 0 0 0;
#X connect 5 0 4 1;
#X connect 6 0 10 0;
#X connect 8 0 6 0;
#X connect 8 1 4 1;
#X connect 8 1 0 1;
#X connect 9 0 8 0;
#X connect 10 0 4 0;
#X restore 349 78 pd midireset;
#X obj 347 62 bng 15 250 50 0 empty empty empty 17 7 0 10 -262144 -1
-1;
#X obj 207 269 outlet;
#X obj 207 252 r beat;
#X obj 131 103 cnv 15 188 12 empty empty empty 20 12 0 14 -262144 -66577
0;
#X obj 278 104 cnv 15 36 20 empty empty empty 20 12 0 14 -1 -66577
0;
#X floatatom 280 106 5 0 0 0 - bpm NULL5fEe4f53r;
#X obj 211 60 bng 35 50 10 0 empty beat empty 17 7 0 10 -262144 -1
-1;
#X obj 136 105 cnv 15 136 19 empty empty empty 20 12 0 14 -1 -66577
0;
#X obj 140 107 hsl 128 15 2 0.0008 1 0 empty empty empty -2 -8 0 10
-262144 -1 -1 8340 1;
#X msg 11 85 1;
#X obj 22 64 loadbang;
#X obj 13 150 * 2000;
#X obj 13 170 + 100;
#X obj 13 132 expr sqrt($f1);
#X floatatom 43 112 8 0 0 0 - - -;
#X msg 49 85 0.04;
#X obj 55 267 s beat;
#X obj 55 247 f;
#X obj 13 212 s bpm;
#X obj 13 190 expr (60000/$f1);
#X obj 55 226 metro;
#X obj 13 111 f;
#X obj 323 264 dac~;
#X obj 322 215 tgl 15 0 empty empty empty 17 7 0 10 -262144 -1 -1 0
1;
#X obj 326 233 *~;
#X obj 359 214 tgl 15 0 empty _click_track_audio empty 17 7 0 10 -262144
-1 -1 0 1;
#X msg 359 248 \; pd dsp \$1;
#X obj 209 130 inlet;
#X obj 209 156 t f f;
#X obj 306 163 - 100;
#X obj 364 165 / 2000;
#X obj 329 191 expr ($f1 * $f1);
#X floatatom 260 172 5 0 0 0 - - -;
#X floatatom 277 193 5 0 0 0 - - -;
#X floatatom 275 253 5 0 0 0 - - -;
#X floatatom 111 224 5 0 0 0 - - -;
#X floatatom 129 193 5 0 0 0 - - -;
#X floatatom 102 173 5 0 0 0 - - -;
#X floatatom 116 146 5 0 0 0 - - -;
#X obj 264 134 expr (60000/$f1);
#X connect 5 0 36 0;
#X connect 16 0 15 0;
#X connect 18 0 17 0;
#X connect 24 0 37 0;
#X connect 24 0 0 0;
#X connect 25 0 36 0;
#X connect 25 0 5 0;
#X connect 26 0 25 0;
#X connect 26 0 31 0;
#X connect 27 0 28 0;
#X connect 27 0 53 0;
#X connect 28 0 33 1;
#X connect 28 0 35 0;
#X connect 28 0 36 1;
#X connect 28 0 52 0;
#X connect 29 0 27 0;
#X connect 29 0 54 0;
#X connect 31 0 24 0;
#X connect 33 0 32 0;
#X connect 35 0 34 0;
#X connect 35 0 51 0;
#X connect 36 0 33 0;
#X connect 37 0 29 0;
#X connect 37 0 30 0;
#X connect 39 0 40 0;
#X connect 40 0 38 0;
#X connect 40 0 38 1;
#X connect 41 0 40 1;
#X connect 41 0 42 0;
#X connect 43 0 44 0;
#X connect 43 0 55 0;
#X connect 45 0 46 0;
#X connect 45 0 49 0;
#X connect 46 0 47 0;
#X connect 47 0 24 0;
#X connect 47 0 50 0;
#X connect 55 0 45 0;
#X connect 55 0 48 0;
#X coords 0 -1 1 1 190 30 1 130 100;
