#N canvas 422 274 450 300 10;
#X obj 390 56 cup;
#X obj 416 78 % 2;
#X obj 46 57 line;
#X obj 110 118 vsl 15 128 1 -1 0 0 empty empty empty 0 -9 0 10 -262144
-1 -1 10912 1;
#X msg 104 56 1 \, 0 \$1;
#X obj 132 7 _beat;
#X obj 252 120 vradio 15 1 0 8 empty empty empty 0 -8 0 10 -262144
-1 -1 4;
#X obj 237 120 vradio 15 1 0 8 empty empty empty 0 -8 0 10 -262144
-1 -1 3;
#X obj 222 120 vradio 15 1 0 8 empty empty empty 0 -8 0 10 -262144
-1 -1 3;
#X obj 207 120 vradio 15 1 0 8 empty empty empty 0 -8 0 10 -262144
-1 -1 0;
#X obj 192 120 vradio 15 1 0 8 empty empty empty 0 -8 0 10 -262144
-1 -1 1;
#X obj 177 120 vradio 15 1 0 8 empty empty empty 0 -8 0 10 -262144
-1 -1 7;
#X obj 162 120 vradio 15 1 0 8 empty empty empty 0 -8 0 10 -262144
-1 -1 4;
#X obj 147 120 vradio 15 1 0 8 empty empty empty 0 -8 0 10 -262144
-1 -1 5;
#X obj 132 120 vradio 15 1 0 8 empty empty empty 0 -8 0 10 -262144
-1 -1 7;
#X obj 297 120 vradio 15 1 0 8 empty empty empty 0 -8 0 10 -262144
-1 -1 5;
#X obj 282 120 vradio 15 1 0 8 empty empty empty 0 -8 0 10 -262144
-1 -1 4;
#X obj 267 120 vradio 15 1 0 8 empty empty empty 0 -8 0 10 -262144
-1 -1 2;
#X msg 272 74 9;
#X obj 179 70 _random_queue;
#X obj 390 79 % 3;
#X obj 391 158 vradio 15 1 0 3 empty empty empty 0 -8 0 10 -262144
-1 -1 1;
#X obj 406 158 vradio 15 1 0 2 empty empty empty 0 -8 0 10 -262144
-1 -1 0;
#X obj 376 158 vradio 15 1 0 4 empty empty empty 0 -8 0 10 -262144
-1 -1 2;
#X obj 364 79 % 4;
#X obj 390 36 t b;
#X obj 322 140 sel 0;
#X obj 322 158 cup;
#X obj 372 259 hradio 15 1 0 4 empty empty empty 0 -8 0 10 -262144
-1 -1 1;
#X obj 322 100 sel 0;
#X obj 322 118 cup;
#X obj 372 274 hradio 15 1 0 4 empty empty empty 0 -8 0 10 -262144
-1 -1 3;
#X obj 372 244 hradio 15 1 0 4 empty empty empty 0 -8 0 10 -262144
-1 -1 2;
#X obj 322 227 % 4;
#X obj 322 242 % 4;
#X obj 322 257 % 4;
#X obj 157 249 hsl 128 15 1 -1 0 0 empty empty empty -2 -8 0 10 -262144
-1 -1 10912 1;
#X obj 27 119 _third;
#X obj 46 76 expr cos($f1*6.2832);
#X obj 272 54 loadbang;
#X obj 42 158 vradio 15 1 0 3 empty empty empty 0 -8 0 10 -262144 -1
-1 1;
#X obj 27 158 vradio 15 1 0 2 empty empty empty 0 -8 0 10 -262144 -1
-1 1;
#X obj 57 158 vradio 15 1 0 4 empty empty empty 0 -8 0 10 -262144 -1
-1 2;
#X obj 27 138 _fourth;
#X floatatom 27 37 5 0 0 0 - - -;
#X msg 233 50 2;
#X obj 27 100 _half;
#X obj 197 270 hradio 24 1 0 2 empty empty empty 0 -8 0 10 -262144
-1 -1 1;
#X obj 153 266 < 0;
#X connect 0 0 1 0;
#X connect 0 0 20 0;
#X connect 0 0 24 0;
#X connect 0 0 33 0;
#X connect 1 0 22 0;
#X connect 1 0 26 0;
#X connect 2 0 38 0;
#X connect 3 0 36 0;
#X connect 4 0 2 0;
#X connect 5 0 4 0;
#X connect 5 0 19 0;
#X connect 5 0 25 0;
#X connect 5 0 44 0;
#X connect 18 0 19 1;
#X connect 19 0 14 0;
#X connect 19 1 13 0;
#X connect 19 2 12 0;
#X connect 19 3 11 0;
#X connect 19 4 10 0;
#X connect 19 5 9 0;
#X connect 19 6 8 0;
#X connect 19 7 7 0;
#X connect 19 8 6 0;
#X connect 19 9 17 0;
#X connect 19 10 16 0;
#X connect 19 11 15 0;
#X connect 20 0 21 0;
#X connect 20 0 29 0;
#X connect 24 0 23 0;
#X connect 25 0 0 0;
#X connect 26 0 27 0;
#X connect 27 0 34 0;
#X connect 29 0 30 0;
#X connect 30 0 35 0;
#X connect 33 0 32 0;
#X connect 34 0 28 0;
#X connect 35 0 31 0;
#X connect 36 0 48 0;
#X connect 37 0 40 0;
#X connect 38 0 3 0;
#X connect 39 0 18 0;
#X connect 43 0 42 0;
#X connect 44 0 37 0;
#X connect 44 0 43 0;
#X connect 44 0 46 0;
#X connect 45 0 19 1;
#X connect 46 0 41 0;
#X connect 48 0 47 0;
