#N canvas 0 22 450 300 10;
#X obj 197 117 delay;
#X obj 202 18 inlet;
#X obj 162 269 outlet;
#X msg 358 109 0;
#X obj 192 223 + 1;
#X obj 162 223 f;
#X obj 202 54 t b f b;
#X obj 211 142 delay;
#X obj 226 167 delay;
#X obj 238 91 expr $f1/4.0;
#X connect 0 0 5 0;
#X connect 0 0 7 0;
#X connect 1 0 6 0;
#X connect 3 0 5 1;
#X connect 4 0 5 1;
#X connect 5 0 2 0;
#X connect 5 0 4 0;
#X connect 6 0 0 0;
#X connect 6 0 5 0;
#X connect 6 1 9 0;
#X connect 6 2 3 0;
#X connect 7 0 5 0;
#X connect 7 0 8 0;
#X connect 8 0 5 0;
#X connect 9 0 0 1;
#X connect 9 0 7 1;
#X connect 9 0 8 1;
