#N canvas 702 340 450 300 10;
#X obj 217 111 * 0.5;
#X obj 190 141 delay;
#X obj 181 8 inlet;
#X obj 181 272 outlet;
#X obj 181 195 f;
#X obj 181 82 t b f;
#X connect 0 0 1 1;
#X connect 0 0 4 1;
#X connect 1 0 4 0;
#X connect 2 0 5 0;
#X connect 4 0 3 0;
#X connect 5 0 1 0;
#X connect 5 0 4 0;
#X connect 5 1 0 0;
