#N canvas 778 78 450 300 10;
#X obj 211 109 * 0.5;
#X obj 190 141 delay;
#X obj 181 8 inlet;
#X obj 181 272 outlet;
#X obj 181 195 f;
#X floatatom 75 154 5 0 0 0 - - -;
#X obj 83 117 bng 15 250 50 0 empty empty empty 17 7 0 10 -262144 -1
-1;
#X floatatom 130 48 5 0 0 0 - - -;
#X obj 228 175 bng 15 250 50 0 empty empty empty 17 7 0 10 -262144
-1 -1;
#X floatatom 203 227 5 0 0 0 - - -;
#X obj 181 82 t b f b;
#X msg 285 125 0;
#X obj 209 195 + 1;
#X connect 0 0 1 1;
#X connect 0 0 5 0;
#X connect 1 0 4 0;
#X connect 1 0 8 0;
#X connect 2 0 7 0;
#X connect 2 0 10 0;
#X connect 4 0 3 0;
#X connect 4 0 9 0;
#X connect 4 0 12 0;
#X connect 10 0 1 0;
#X connect 10 0 4 0;
#X connect 10 0 6 0;
#X connect 10 1 0 0;
#X connect 10 2 11 0;
#X connect 11 0 4 1;
#X connect 12 0 4 1;
