#N canvas 188 197 450 300 10;
#X floatatom 106 8 5 0 0 0 - - -;
#X floatatom 146 8 5 0 0 0 - - -;
#X floatatom 191 8 5 0 0 0 - - -;
#X floatatom 232 8 5 0 0 0 - - -;
#X floatatom 274 8 5 0 0 0 - - -;
#X floatatom 316 9 5 0 0 0 - - -;
#X floatatom 358 9 5 0 0 0 - - -;
#X floatatom 402 9 5 0 0 0 - - -;
#X obj 101 44 expr ($f1+$f2+$f3+$f4+$f5+$f6+$f7+$f8+$f9);
#X msg 70 23 0;
#X floatatom 99 65 5 0 0 0 - - -;
#X obj 16 60 random;
#X floatatom 15 92 5 0 0 0 - - -;
#X obj 390 78 +;
#X obj 50 11 bng 15 250 50 0 bang_random1 empty empty 17 7 0 10 -262144
-1 -1;
#X obj 362 84 +;
#X obj 331 86 +;
#X obj 302 92 +;
#X obj 271 97 +;
#X obj 241 108 +;
#X obj 211 116 +;
#X floatatom 164 188 5 0 0 0 - - -;
#X obj 199 139 <;
#X obj 228 133 <;
#X obj 259 128 <;
#X obj 286 119 <;
#X obj 316 113 <;
#X obj 345 107 <;
#X obj 372 103 <;
#X obj 399 95 <;
#X obj 209 184 spigot;
#X obj 242 158 spigot;
#X obj 260 181 spigot;
#X obj 288 143 spigot;
#X obj 307 164 spigot;
#X obj 331 134 spigot;
#X obj 354 154 spigot;
#X obj 382 123 spigot;
#X obj 200 167 bng 15 250 50 0 empty empty empty 17 7 0 10 -262144
-1 -1;
#X floatatom 403 249 5 0 0 0 - - -;
#X obj 12 37 t b b;
#X obj 11 6 inlet;
#X obj 386 269 outlet;
#X obj 196 264 loadbang;
#X obj 21 163 cnv 15 85 54 empty empty empty 20 12 0 14 -262144 -66577
0;
#X obj 43 177 vsl 10 36 0 127 0 0 empty empty empty 0 -9 0 10 -262144
-1 -1 200 1;
#X obj 23 177 vsl 10 36 0 127 0 0 empty empty empty 0 -9 0 10 -262144
-1 -1 3000 1;
#X obj 33 177 vsl 10 36 0 127 0 0 empty empty empty 0 -9 0 10 -262144
-1 -1 300 1;
#X obj 63 177 vsl 10 36 0 127 0 0 empty empty empty 0 -9 0 10 -262144
-1 -1 500 1;
#X obj 53 177 vsl 10 36 0 127 0 0 empty empty empty 0 -9 0 10 -262144
-1 -1 2800 1;
#X obj 73 177 vsl 10 36 0 127 0 0 empty empty empty 0 -9 0 10 -262144
-1 -1 300 1;
#X obj 93 177 vsl 10 36 0 127 0 0 empty empty empty 0 -9 0 10 -262144
-1 -1 3000 1;
#X obj 83 177 vsl 10 36 0 127 0 0 empty empty empty 0 -9 0 10 -262144
-1 -1 0 1;
#X text 23 159 0;
#X text 34 159 1;
#X text 45 159 2;
#X text 55 159 3;
#X text 65 159 4;
#X text 75 159 5;
#X text 84 159 6 7;
#X msg 199 225 0;
#X msg 231 216 1;
#X msg 261 211 2;
#X msg 291 212 3;
#X msg 319 196 4;
#X msg 351 187 5;
#X msg 378 174 6;
#X msg 405 155 7;
#X connect 0 0 8 1;
#X connect 0 0 20 0;
#X connect 1 0 8 2;
#X connect 1 0 19 0;
#X connect 2 0 8 3;
#X connect 2 0 18 0;
#X connect 3 0 8 4;
#X connect 3 0 17 0;
#X connect 4 0 8 5;
#X connect 4 0 16 0;
#X connect 5 0 8 6;
#X connect 5 0 15 0;
#X connect 6 0 8 7;
#X connect 6 0 13 0;
#X connect 7 0 8 8;
#X connect 7 0 13 1;
#X connect 7 0 29 1;
#X connect 8 0 10 0;
#X connect 8 0 11 1;
#X connect 9 0 8 0;
#X connect 11 0 12 0;
#X connect 11 0 22 0;
#X connect 11 0 23 0;
#X connect 11 0 24 0;
#X connect 11 0 25 0;
#X connect 11 0 26 0;
#X connect 11 0 27 0;
#X connect 11 0 28 0;
#X connect 11 0 29 0;
#X connect 13 0 15 1;
#X connect 13 0 28 1;
#X connect 15 0 16 1;
#X connect 15 0 27 1;
#X connect 16 0 17 1;
#X connect 16 0 26 1;
#X connect 17 0 18 1;
#X connect 17 0 25 1;
#X connect 18 0 19 1;
#X connect 18 0 24 1;
#X connect 19 0 20 1;
#X connect 19 0 23 1;
#X connect 20 0 21 0;
#X connect 20 0 22 1;
#X connect 22 0 30 1;
#X connect 23 0 31 1;
#X connect 24 0 32 1;
#X connect 25 0 33 1;
#X connect 26 0 34 1;
#X connect 27 0 35 1;
#X connect 28 0 36 1;
#X connect 29 0 37 1;
#X connect 30 0 60 0;
#X connect 31 0 61 0;
#X connect 32 0 62 0;
#X connect 33 0 63 0;
#X connect 34 0 64 0;
#X connect 35 0 65 0;
#X connect 36 0 66 0;
#X connect 37 0 67 0;
#X connect 38 0 30 0;
#X connect 38 0 31 0;
#X connect 38 0 32 0;
#X connect 38 0 33 0;
#X connect 38 0 34 0;
#X connect 38 0 35 0;
#X connect 38 0 36 0;
#X connect 38 0 37 0;
#X connect 40 0 38 0;
#X connect 40 1 11 0;
#X connect 41 0 14 0;
#X connect 41 0 9 0;
#X connect 41 0 40 0;
#X connect 43 0 60 0;
#X connect 45 0 2 0;
#X connect 46 0 0 0;
#X connect 47 0 1 0;
#X connect 48 0 4 0;
#X connect 49 0 3 0;
#X connect 50 0 5 0;
#X connect 51 0 7 0;
#X connect 52 0 6 0;
#X connect 60 0 39 0;
#X connect 60 0 42 0;
#X connect 61 0 39 0;
#X connect 61 0 42 0;
#X connect 62 0 39 0;
#X connect 62 0 42 0;
#X connect 63 0 39 0;
#X connect 63 0 42 0;
#X connect 64 0 39 0;
#X connect 64 0 42 0;
#X connect 65 0 39 0;
#X connect 65 0 42 0;
#X connect 66 0 39 0;
#X connect 66 0 42 0;
#X connect 67 0 39 0;
#X connect 67 0 42 0;
#X coords 0 -1 1 1 86 60 1 20 160;
