#N canvas 43 218 450 300 10;
#X obj 265 99 random;
#X obj 5 190 f;
#X obj 43 190 f;
#X obj 81 190 f;
#X obj 327 16 loadbang;
#X obj 326 102 + 2;
#X obj 36 46 inlet;
#X text 18 -1 beat (bang \, float);
#X obj 217 35 inlet;
#X msg 327 39 2;
#X obj 5 218 outlet;
#X obj 43 218 outlet;
#X obj 81 218 outlet;
#X text 210 0 max int;
#X obj 319 80 hradio 15 1 0 8 empty empty empty 0 -8 0 10 -262144 -1
-1 0;
#X obj 118 190 f;
#X obj 155 190 f;
#X obj 191 190 f;
#X obj 118 218 outlet;
#X obj 155 218 outlet;
#X obj 191 218 outlet;
#X obj 229 190 f;
#X obj 266 190 f;
#X obj 302 190 f;
#X obj 229 218 outlet;
#X obj 266 218 outlet;
#X obj 302 218 outlet;
#X obj 329 163 f;
#X obj 366 163 f;
#X obj 403 163 f;
#X obj 329 191 outlet;
#X obj 366 191 outlet;
#X obj 403 191 outlet;
#X obj 49 115 t b b b b b b b b b b b b;
#X connect 0 0 29 0;
#X connect 1 0 10 0;
#X connect 2 0 1 1;
#X connect 2 0 11 0;
#X connect 3 0 2 1;
#X connect 3 0 12 0;
#X connect 4 0 9 0;
#X connect 5 0 0 1;
#X connect 6 0 33 0;
#X connect 8 0 0 1;
#X connect 9 0 0 1;
#X connect 14 0 5 0;
#X connect 15 0 3 1;
#X connect 15 0 18 0;
#X connect 16 0 15 1;
#X connect 16 0 19 0;
#X connect 17 0 16 1;
#X connect 17 0 20 0;
#X connect 21 0 17 1;
#X connect 21 0 24 0;
#X connect 22 0 21 1;
#X connect 22 0 25 0;
#X connect 23 0 22 1;
#X connect 23 0 26 0;
#X connect 27 0 23 1;
#X connect 27 0 30 0;
#X connect 28 0 27 1;
#X connect 28 0 31 0;
#X connect 29 0 28 1;
#X connect 29 0 32 0;
#X connect 33 0 0 0;
#X connect 33 1 28 0;
#X connect 33 2 27 0;
#X connect 33 3 23 0;
#X connect 33 4 22 0;
#X connect 33 5 21 0;
#X connect 33 6 17 0;
#X connect 33 7 16 0;
#X connect 33 8 15 0;
#X connect 33 9 3 0;
#X connect 33 10 2 0;
#X connect 33 11 1 0;
#X coords 0 300 1 299 120 30 0;
