#N canvas 601 23 450 300 10;
#X obj 150 21 bng 150 50 10 0 empty beat empty 17 7 0 10 -262144 -1
-1;
#N canvas 70 318 450 300 guts 1;
#X obj 37 79 tgl 15 0 empty empty empty 17 7 0 10 -262144 -1 -1 1 1
;
#X obj 44 209 dac~;
#X obj 43 160 tgl 15 0 empty empty empty 17 7 0 10 -262144 -1 -1 1
1;
#X obj 47 178 *~;
#X msg 62 52 1;
#X obj 54 23 loadbang;
#X obj 239 123 metro;
#X obj 265 94 + 200;
#X obj 262 66 * 2000;
#X obj 185 7 r _tempo_bpm;
#X floatatom 285 123 5 0 0 0 - - -;
#X obj 270 219 s _beat;
#X obj 132 77 s _set_tempo_bpm;
#X msg 116 53 0.15;
#X obj 64 161 tgl 15 0 empty _click_track empty 17 7 0 10 -262144 -1
-1 0 1;
#X msg 122 217 \; pd dsp \$1;
#X obj 244 166 s beat;
#X text 266 265 "the pulse" is also "beat";
#X obj 290 14 r _measure_radio_in;
#X floatatom 274 40 5 0 0 0 - - -;
#X obj 315 41 sel 0;
#X obj 351 41 sel 1;
#X obj 388 41 sel 2;
#X obj 224 191 i;
#X obj 247 191 + 1;
#X floatatom 225 216 5 0 0 0 - - -;
#X obj 347 144 %;
#X msg 351 58 3;
#X msg 388 58 2;
#X msg 315 58 4;
#X obj 338 104 i;
#X obj 378 171 sel 0;
#X obj 325 122 s measure_beat_unit;
#X obj 354 232 s measure;
#X connect 0 0 6 0;
#X connect 2 0 3 0;
#X connect 3 0 1 0;
#X connect 3 0 1 1;
#X connect 4 0 0 0;
#X connect 5 0 4 0;
#X connect 5 0 13 0;
#X connect 5 0 29 0;
#X connect 6 0 2 0;
#X connect 6 0 16 0;
#X connect 6 0 23 0;
#X connect 7 0 6 1;
#X connect 7 0 10 0;
#X connect 8 0 7 0;
#X connect 9 0 8 0;
#X connect 13 0 12 0;
#X connect 14 0 3 1;
#X connect 14 0 15 0;
#X connect 18 0 19 0;
#X connect 18 0 20 0;
#X connect 18 0 21 0;
#X connect 18 0 22 0;
#X connect 20 0 29 0;
#X connect 21 0 27 0;
#X connect 22 0 28 0;
#X connect 23 0 24 0;
#X connect 23 0 25 0;
#X connect 23 0 26 0;
#X connect 24 0 23 1;
#X connect 26 0 31 0;
#X connect 27 0 30 0;
#X connect 28 0 30 0;
#X connect 29 0 30 0;
#X connect 30 0 26 1;
#X connect 30 0 32 0;
#X connect 31 0 33 0;
#X restore 393 273 pd guts;
#X obj 67 186 hsl 320 50 1 0.0002 1 0 _tempo_bpm _set_tempo_bpm empty
-2 -8 0 10 -262144 -1 -1 7105 1;
#X text 114 239 andante;
#X text 69 238 adagio;
#X text 166 240 allegro;
#X text 226 238 presto;
#X text 159 255 |;
#X text 105 255 |;
#X text 208 255 |;
#X text 305 259 |;
#X obj 394 205 tgl 15 0 _click_track empty dsp 17 7 0 10 -262144 -1
-1 0 1;
#X obj 25 186 vradio 15 1 0 3 _measure_radio_in empty empty 0 -8 0
10 -262144 -1 -1 0;
#X floatatom 25 232 3 0 0 0 - measure_beat_unit null39598295;
#X obj 30 260 bng 15 150 10 0 empty measure empty 17 7 0 10 -262144
-1 -1;
