#N canvas 61 392 450 300 10;
#N canvas 729 386 450 300 guts 0;
#X floatatom 14 55 5 0 0 0 - - -;
#X obj 17 115 keyup;
#X obj 14 38 key;
#X floatatom 245 52 5 0 0 0 - - -;
#X obj 218 52 i;
#X msg 14 93 1;
#X msg 48 93 2;
#X msg 82 93 3;
#X msg 116 93 4;
#X msg 150 93 5;
#X msg 184 93 6;
#X msg 218 93 7;
#X msg 252 93 8;
#X msg 286 93 9;
#X msg 320 93 10;
#X msg 360 93 11;
#X msg 400 93 12;
#X obj 400 74 sel 12;
#X obj 360 74 sel 11;
#X obj 320 74 sel 10;
#X obj 286 74 sel 9;
#X obj 252 74 sel 8;
#X obj 218 74 sel 7;
#X obj 184 74 sel 6;
#X obj 150 74 sel 5;
#X obj 116 74 sel 4;
#X obj 82 74 sel 3;
#X obj 48 74 sel 2;
#N canvas 525 391 450 300 noise 0;
#X obj 156 186 mtof;
#X obj 190 185 osc~;
#X obj 191 207 dac~;
#X floatatom 156 205 5 0 0 0 - - -;
#X obj 156 167 + 49;
#X connect 0 0 1 0;
#X connect 0 0 3 0;
#X connect 1 0 2 0;
#X connect 1 0 2 1;
#X connect 4 0 0 0;
#X restore 369 40 pd noise;
#X floatatom 245 134 5 0 0 0 - - -;
#X obj 218 134 i;
#X obj 401 156 sel 12;
#X obj 361 156 sel 11;
#X obj 321 156 sel 10;
#X obj 287 156 sel 9;
#X obj 253 156 sel 8;
#X obj 219 156 sel 7;
#X obj 185 156 sel 6;
#X obj 151 156 sel 5;
#X obj 117 156 sel 4;
#X obj 83 156 sel 3;
#X obj 49 156 sel 2;
#X floatatom 17 132 5 0 0 0 - - -;
#X obj 105 45 s c_1;
#N canvas 243 354 450 300 sn 0;
#X obj 204 15 inlet;
#X msg 185 183 color \$1;
#X obj 191 222 s cnv_a;
#X obj 172 114 sel 0;
#X obj 203 67 == 0;
#X obj 250 116 sel 1;
#X text 259 96 off;
#X text 187 97 on;
#X msg 175 142 18;
#X msg 257 143 20;
#X obj 217 42 t f f;
#X obj 301 145 f;
#X obj 301 175 s pedal_note;
#X connect 0 0 10 0;
#X connect 1 0 2 0;
#X connect 3 0 8 0;
#X connect 3 0 11 0;
#X connect 4 0 3 0;
#X connect 4 0 5 0;
#X connect 5 0 9 0;
#X connect 8 0 1 0;
#X connect 9 0 1 0;
#X connect 10 0 4 0;
#X connect 10 1 11 1;
#X connect 11 0 12 0;
#X restore 16 220 pd sn;
#N canvas 245 145 450 300 sn 0;
#X msg 185 183 color \$1;
#X obj 172 114 sel 0;
#X obj 203 67 == 0;
#X obj 250 116 sel 1;
#X text 259 96 off;
#X text 187 97 on;
#X msg 175 142 18;
#X obj 191 222 s cnv_b;
#X msg 257 143 12;
#X obj 203 11 inlet;
#X obj 216 38 t f f;
#X obj 300 141 f;
#X obj 300 171 s pedal_note;
#X connect 0 0 7 0;
#X connect 1 0 6 0;
#X connect 1 0 11 0;
#X connect 2 0 1 0;
#X connect 2 0 3 0;
#X connect 3 0 8 0;
#X connect 6 0 0 0;
#X connect 8 0 0 0;
#X connect 9 0 10 0;
#X connect 10 0 2 0;
#X connect 10 1 11 1;
#X connect 11 0 12 0;
#X restore 50 220 pd sn;
#N canvas 468 363 450 300 sn 0;
#X msg 185 183 color \$1;
#X obj 172 114 sel 0;
#X obj 203 67 == 0;
#X obj 250 116 sel 1;
#X text 259 96 off;
#X text 187 97 on;
#X msg 175 142 18;
#X obj 191 222 s cnv_c;
#X msg 257 143 30;
#X obj 203 14 inlet;
#X obj 216 41 t f f;
#X obj 300 144 f;
#X obj 300 174 s pedal_note;
#X connect 0 0 7 0;
#X connect 1 0 6 0;
#X connect 1 0 11 0;
#X connect 2 0 1 0;
#X connect 2 0 3 0;
#X connect 3 0 8 0;
#X connect 6 0 0 0;
#X connect 8 0 0 0;
#X connect 9 0 10 0;
#X connect 10 0 2 0;
#X connect 10 1 11 1;
#X connect 11 0 12 0;
#X restore 84 220 pd sn;
#N canvas 632 363 450 300 sn 0;
#X msg 185 183 color \$1;
#X obj 172 114 sel 0;
#X obj 203 67 == 0;
#X obj 250 116 sel 1;
#X text 259 96 off;
#X text 187 97 on;
#X msg 175 142 18;
#X msg 257 143 12;
#X obj 191 222 s cnv_d;
#X obj 208 15 inlet;
#X obj 221 42 t f f;
#X obj 305 145 f;
#X obj 305 175 s pedal_note;
#X connect 0 0 8 0;
#X connect 1 0 6 0;
#X connect 1 0 11 0;
#X connect 2 0 1 0;
#X connect 2 0 3 0;
#X connect 3 0 7 0;
#X connect 6 0 0 0;
#X connect 7 0 0 0;
#X connect 9 0 10 0;
#X connect 10 0 2 0;
#X connect 10 1 11 1;
#X connect 11 0 12 0;
#X restore 118 220 pd sn;
#N canvas 468 363 450 300 sn 0;
#X msg 185 183 color \$1;
#X obj 172 114 sel 0;
#X obj 203 67 == 0;
#X obj 250 116 sel 1;
#X text 259 96 off;
#X text 187 97 on;
#X msg 175 142 18;
#X msg 257 143 20;
#X obj 191 222 s cnv_e;
#X obj 201 14 inlet;
#X obj 214 41 t f f;
#X obj 298 144 f;
#X obj 298 174 s pedal_note;
#X connect 0 0 8 0;
#X connect 1 0 6 0;
#X connect 1 0 11 0;
#X connect 2 0 1 0;
#X connect 2 0 3 0;
#X connect 3 0 7 0;
#X connect 6 0 0 0;
#X connect 7 0 0 0;
#X connect 9 0 10 0;
#X connect 10 0 2 0;
#X connect 10 1 11 1;
#X connect 11 0 12 0;
#X restore 152 220 pd sn;
#N canvas 468 363 450 300 sn 0;
#X msg 185 183 color \$1;
#X obj 172 114 sel 0;
#X obj 203 67 == 0;
#X obj 250 116 sel 1;
#X text 259 96 off;
#X text 187 97 on;
#X msg 175 142 18;
#X obj 191 222 s cnv_f;
#X msg 257 143 30;
#X obj 209 11 inlet;
#X obj 222 38 t f f;
#X obj 306 141 f;
#X obj 306 171 s pedal_note;
#X connect 0 0 7 0;
#X connect 1 0 6 0;
#X connect 1 0 11 0;
#X connect 2 0 1 0;
#X connect 2 0 3 0;
#X connect 3 0 8 0;
#X connect 6 0 0 0;
#X connect 8 0 0 0;
#X connect 9 0 10 0;
#X connect 10 0 2 0;
#X connect 10 1 11 1;
#X connect 11 0 12 0;
#X restore 186 220 pd sn;
#N canvas 468 363 450 300 sn 0;
#X msg 185 183 color \$1;
#X obj 172 114 sel 0;
#X obj 203 67 == 0;
#X obj 250 116 sel 1;
#X text 259 96 off;
#X text 187 97 on;
#X msg 175 142 18;
#X obj 191 222 s cnv_g;
#X msg 257 143 12;
#X obj 198 12 inlet;
#X obj 211 39 t f f;
#X obj 295 142 f;
#X obj 295 172 s pedal_note;
#X connect 0 0 7 0;
#X connect 1 0 6 0;
#X connect 1 0 11 0;
#X connect 2 0 1 0;
#X connect 2 0 3 0;
#X connect 3 0 8 0;
#X connect 6 0 0 0;
#X connect 8 0 0 0;
#X connect 9 0 10 0;
#X connect 10 0 2 0;
#X connect 10 1 11 1;
#X connect 11 0 12 0;
#X restore 220 220 pd sn;
#N canvas 468 363 450 300 sn 0;
#X msg 185 183 color \$1;
#X obj 172 114 sel 0;
#X obj 203 67 == 0;
#X obj 250 116 sel 1;
#X text 259 96 off;
#X text 187 97 on;
#X msg 175 142 18;
#X msg 257 143 20;
#X obj 191 222 s cnv_h;
#X obj 202 9 inlet;
#X obj 215 36 t f f;
#X obj 299 139 f;
#X obj 299 169 s pedal_note;
#X connect 0 0 8 0;
#X connect 1 0 6 0;
#X connect 1 0 11 0;
#X connect 2 0 1 0;
#X connect 2 0 3 0;
#X connect 3 0 7 0;
#X connect 6 0 0 0;
#X connect 7 0 0 0;
#X connect 9 0 10 0;
#X connect 10 0 2 0;
#X connect 10 1 11 1;
#X connect 11 0 12 0;
#X restore 254 220 pd sn;
#N canvas 468 363 450 300 sn 0;
#X msg 185 183 color \$1;
#X obj 172 114 sel 0;
#X obj 203 67 == 0;
#X obj 250 116 sel 1;
#X text 259 96 off;
#X text 187 97 on;
#X msg 175 142 18;
#X obj 191 222 s cnv_i;
#X msg 257 143 12;
#X obj 201 11 inlet;
#X obj 214 38 t f f;
#X obj 298 141 f;
#X obj 298 171 s pedal_note;
#X connect 0 0 7 0;
#X connect 1 0 6 0;
#X connect 1 0 11 0;
#X connect 2 0 1 0;
#X connect 2 0 3 0;
#X connect 3 0 8 0;
#X connect 6 0 0 0;
#X connect 8 0 0 0;
#X connect 9 0 10 0;
#X connect 10 0 2 0;
#X connect 10 1 11 1;
#X connect 11 0 12 0;
#X restore 288 220 pd sn;
#N canvas 468 363 450 300 sn 0;
#X msg 185 183 color \$1;
#X obj 172 114 sel 0;
#X obj 203 67 == 0;
#X obj 250 116 sel 1;
#X text 259 96 off;
#X text 187 97 on;
#X msg 175 142 18;
#X obj 191 222 s cnv_j;
#X msg 257 143 30;
#X obj 201 14 inlet;
#X obj 214 41 t f f;
#X obj 298 144 f;
#X obj 298 174 s pedal_note;
#X connect 0 0 7 0;
#X connect 1 0 6 0;
#X connect 1 0 11 0;
#X connect 2 0 1 0;
#X connect 2 0 3 0;
#X connect 3 0 8 0;
#X connect 6 0 0 0;
#X connect 8 0 0 0;
#X connect 9 0 10 0;
#X connect 10 0 2 0;
#X connect 10 1 11 1;
#X connect 11 0 12 0;
#X restore 322 220 pd sn;
#N canvas 468 363 450 300 sn 0;
#X msg 185 183 color \$1;
#X obj 172 114 sel 0;
#X obj 203 67 == 0;
#X obj 250 116 sel 1;
#X text 259 96 off;
#X text 187 97 on;
#X msg 175 142 18;
#X obj 191 222 s cnv_k;
#X msg 257 143 12;
#X obj 200 13 inlet;
#X obj 213 40 t f f;
#X obj 297 143 f;
#X obj 297 173 s pedal_note;
#X connect 0 0 7 0;
#X connect 1 0 6 0;
#X connect 1 0 11 0;
#X connect 2 0 1 0;
#X connect 2 0 3 0;
#X connect 3 0 8 0;
#X connect 6 0 0 0;
#X connect 8 0 0 0;
#X connect 9 0 10 0;
#X connect 10 0 2 0;
#X connect 10 1 11 1;
#X connect 11 0 12 0;
#X restore 356 220 pd sn;
#N canvas 468 363 450 300 sn 0;
#X msg 185 183 color \$1;
#X obj 172 114 sel 0;
#X obj 203 67 == 0;
#X obj 250 116 sel 1;
#X text 259 96 off;
#X text 187 97 on;
#X msg 175 142 18;
#X msg 257 143 20;
#X obj 191 222 s cnv_l;
#X obj 194 15 inlet;
#X obj 207 42 t f f;
#X obj 291 145 f;
#X obj 291 175 s pedal_note;
#X connect 0 0 8 0;
#X connect 1 0 6 0;
#X connect 1 0 11 0;
#X connect 2 0 1 0;
#X connect 2 0 3 0;
#X connect 3 0 7 0;
#X connect 6 0 0 0;
#X connect 7 0 0 0;
#X connect 9 0 10 0;
#X connect 10 0 2 0;
#X connect 10 1 11 1;
#X connect 11 0 12 0;
#X restore 390 220 pd sn;
#N canvas 605 323 450 300 nt 0;
#X obj 102 27 inlet;
#X obj 283 29 inlet;
#X obj 162 178 == 0;
#X obj 215 149 f;
#X obj 190 52 t f b;
#X obj 164 88 spigot;
#X obj 270 78 t b b;
#X msg 281 111 0;
#X floatatom 231 186 5 0 0 0 - - -;
#X obj 175 111 t b f;
#X obj 206 262 outlet;
#X text 105 7 key;
#X text 286 12 keyup;
#X text 103 47 float;
#X text 288 46 bang;
#X connect 0 0 4 0;
#X connect 1 0 6 0;
#X connect 2 0 5 1;
#X connect 3 0 2 0;
#X connect 3 0 8 0;
#X connect 3 0 10 0;
#X connect 4 0 5 0;
#X connect 4 1 3 0;
#X connect 5 0 9 0;
#X connect 6 0 3 0;
#X connect 6 1 7 0;
#X connect 7 0 3 1;
#X connect 9 0 3 0;
#X connect 9 1 3 1;
#X restore 16 181 pd nt;
#N canvas 605 323 450 300 nt 0;
#X obj 102 27 inlet;
#X obj 283 29 inlet;
#X obj 162 178 == 0;
#X obj 215 149 f;
#X obj 190 52 t f b;
#X obj 164 88 spigot;
#X obj 270 78 t b b;
#X msg 281 111 0;
#X floatatom 231 186 5 0 0 0 - - -;
#X obj 175 111 t b f;
#X obj 206 262 outlet;
#X text 105 7 key;
#X text 286 12 keyup;
#X text 103 47 float;
#X text 288 46 bang;
#X connect 0 0 4 0;
#X connect 1 0 6 0;
#X connect 2 0 5 1;
#X connect 3 0 2 0;
#X connect 3 0 8 0;
#X connect 3 0 10 0;
#X connect 4 0 5 0;
#X connect 4 1 3 0;
#X connect 5 0 9 0;
#X connect 6 0 3 0;
#X connect 6 1 7 0;
#X connect 7 0 3 1;
#X connect 9 0 3 0;
#X connect 9 1 3 1;
#X restore 50 181 pd nt;
#N canvas 605 323 450 300 nt 0;
#X obj 102 27 inlet;
#X obj 283 29 inlet;
#X obj 162 178 == 0;
#X obj 215 149 f;
#X obj 190 52 t f b;
#X obj 164 88 spigot;
#X obj 270 78 t b b;
#X msg 281 111 0;
#X floatatom 231 186 5 0 0 0 - - -;
#X obj 175 111 t b f;
#X obj 206 262 outlet;
#X text 105 7 key;
#X text 286 12 keyup;
#X text 103 47 float;
#X text 288 46 bang;
#X connect 0 0 4 0;
#X connect 1 0 6 0;
#X connect 2 0 5 1;
#X connect 3 0 2 0;
#X connect 3 0 8 0;
#X connect 3 0 10 0;
#X connect 4 0 5 0;
#X connect 4 1 3 0;
#X connect 5 0 9 0;
#X connect 6 0 3 0;
#X connect 6 1 7 0;
#X connect 7 0 3 1;
#X connect 9 0 3 0;
#X connect 9 1 3 1;
#X restore 84 181 pd nt;
#N canvas 605 323 450 300 nt 0;
#X obj 102 27 inlet;
#X obj 283 29 inlet;
#X obj 162 178 == 0;
#X obj 215 149 f;
#X obj 190 52 t f b;
#X obj 164 88 spigot;
#X obj 270 78 t b b;
#X msg 281 111 0;
#X floatatom 231 186 5 0 0 0 - - -;
#X obj 175 111 t b f;
#X obj 206 262 outlet;
#X text 105 7 key;
#X text 286 12 keyup;
#X text 103 47 float;
#X text 288 46 bang;
#X connect 0 0 4 0;
#X connect 1 0 6 0;
#X connect 2 0 5 1;
#X connect 3 0 2 0;
#X connect 3 0 8 0;
#X connect 3 0 10 0;
#X connect 4 0 5 0;
#X connect 4 1 3 0;
#X connect 5 0 9 0;
#X connect 6 0 3 0;
#X connect 6 1 7 0;
#X connect 7 0 3 1;
#X connect 9 0 3 0;
#X connect 9 1 3 1;
#X restore 118 181 pd nt;
#N canvas 605 323 450 300 nt 0;
#X obj 102 27 inlet;
#X obj 283 29 inlet;
#X obj 162 178 == 0;
#X obj 215 149 f;
#X obj 190 52 t f b;
#X obj 164 88 spigot;
#X obj 270 78 t b b;
#X msg 281 111 0;
#X floatatom 231 186 5 0 0 0 - - -;
#X obj 175 111 t b f;
#X obj 206 262 outlet;
#X text 105 7 key;
#X text 286 12 keyup;
#X text 103 47 float;
#X text 288 46 bang;
#X connect 0 0 4 0;
#X connect 1 0 6 0;
#X connect 2 0 5 1;
#X connect 3 0 2 0;
#X connect 3 0 8 0;
#X connect 3 0 10 0;
#X connect 4 0 5 0;
#X connect 4 1 3 0;
#X connect 5 0 9 0;
#X connect 6 0 3 0;
#X connect 6 1 7 0;
#X connect 7 0 3 1;
#X connect 9 0 3 0;
#X connect 9 1 3 1;
#X restore 152 181 pd nt;
#N canvas 605 323 450 300 nt 0;
#X obj 102 27 inlet;
#X obj 283 29 inlet;
#X obj 162 178 == 0;
#X obj 215 149 f;
#X obj 190 52 t f b;
#X obj 164 88 spigot;
#X obj 270 78 t b b;
#X msg 281 111 0;
#X floatatom 231 186 5 0 0 0 - - -;
#X obj 175 111 t b f;
#X obj 206 262 outlet;
#X text 105 7 key;
#X text 286 12 keyup;
#X text 103 47 float;
#X text 288 46 bang;
#X connect 0 0 4 0;
#X connect 1 0 6 0;
#X connect 2 0 5 1;
#X connect 3 0 2 0;
#X connect 3 0 8 0;
#X connect 3 0 10 0;
#X connect 4 0 5 0;
#X connect 4 1 3 0;
#X connect 5 0 9 0;
#X connect 6 0 3 0;
#X connect 6 1 7 0;
#X connect 7 0 3 1;
#X connect 9 0 3 0;
#X connect 9 1 3 1;
#X restore 186 181 pd nt;
#N canvas 605 323 450 300 nt 0;
#X obj 102 27 inlet;
#X obj 283 29 inlet;
#X obj 162 178 == 0;
#X obj 215 149 f;
#X obj 190 52 t f b;
#X obj 164 88 spigot;
#X obj 270 78 t b b;
#X msg 281 111 0;
#X floatatom 231 186 5 0 0 0 - - -;
#X obj 175 111 t b f;
#X obj 206 262 outlet;
#X text 105 7 key;
#X text 286 12 keyup;
#X text 103 47 float;
#X text 288 46 bang;
#X connect 0 0 4 0;
#X connect 1 0 6 0;
#X connect 2 0 5 1;
#X connect 3 0 2 0;
#X connect 3 0 8 0;
#X connect 3 0 10 0;
#X connect 4 0 5 0;
#X connect 4 1 3 0;
#X connect 5 0 9 0;
#X connect 6 0 3 0;
#X connect 6 1 7 0;
#X connect 7 0 3 1;
#X connect 9 0 3 0;
#X connect 9 1 3 1;
#X restore 220 181 pd nt;
#N canvas 605 323 450 300 nt 0;
#X obj 102 27 inlet;
#X obj 283 29 inlet;
#X obj 162 178 == 0;
#X obj 215 149 f;
#X obj 190 52 t f b;
#X obj 164 88 spigot;
#X obj 270 78 t b b;
#X msg 281 111 0;
#X floatatom 231 186 5 0 0 0 - - -;
#X obj 175 111 t b f;
#X obj 206 262 outlet;
#X text 105 7 key;
#X text 286 12 keyup;
#X text 103 47 float;
#X text 288 46 bang;
#X connect 0 0 4 0;
#X connect 1 0 6 0;
#X connect 2 0 5 1;
#X connect 3 0 2 0;
#X connect 3 0 8 0;
#X connect 3 0 10 0;
#X connect 4 0 5 0;
#X connect 4 1 3 0;
#X connect 5 0 9 0;
#X connect 6 0 3 0;
#X connect 6 1 7 0;
#X connect 7 0 3 1;
#X connect 9 0 3 0;
#X connect 9 1 3 1;
#X restore 254 181 pd nt;
#N canvas 605 323 450 300 nt 0;
#X obj 102 27 inlet;
#X obj 283 29 inlet;
#X obj 162 178 == 0;
#X obj 215 149 f;
#X obj 190 52 t f b;
#X obj 164 88 spigot;
#X obj 270 78 t b b;
#X msg 281 111 0;
#X floatatom 231 186 5 0 0 0 - - -;
#X obj 175 111 t b f;
#X obj 206 262 outlet;
#X text 105 7 key;
#X text 286 12 keyup;
#X text 103 47 float;
#X text 288 46 bang;
#X connect 0 0 4 0;
#X connect 1 0 6 0;
#X connect 2 0 5 1;
#X connect 3 0 2 0;
#X connect 3 0 8 0;
#X connect 3 0 10 0;
#X connect 4 0 5 0;
#X connect 4 1 3 0;
#X connect 5 0 9 0;
#X connect 6 0 3 0;
#X connect 6 1 7 0;
#X connect 7 0 3 1;
#X connect 9 0 3 0;
#X connect 9 1 3 1;
#X restore 288 181 pd nt;
#N canvas 605 323 450 300 nt 0;
#X obj 102 27 inlet;
#X obj 283 29 inlet;
#X obj 162 178 == 0;
#X obj 215 149 f;
#X obj 190 52 t f b;
#X obj 164 88 spigot;
#X obj 270 78 t b b;
#X msg 281 111 0;
#X floatatom 231 186 5 0 0 0 - - -;
#X obj 175 111 t b f;
#X obj 206 262 outlet;
#X text 105 7 key;
#X text 286 12 keyup;
#X text 103 47 float;
#X text 288 46 bang;
#X connect 0 0 4 0;
#X connect 1 0 6 0;
#X connect 2 0 5 1;
#X connect 3 0 2 0;
#X connect 3 0 8 0;
#X connect 3 0 10 0;
#X connect 4 0 5 0;
#X connect 4 1 3 0;
#X connect 5 0 9 0;
#X connect 6 0 3 0;
#X connect 6 1 7 0;
#X connect 7 0 3 1;
#X connect 9 0 3 0;
#X connect 9 1 3 1;
#X restore 322 181 pd nt;
#N canvas 605 323 450 300 nt 0;
#X obj 102 27 inlet;
#X obj 283 29 inlet;
#X obj 162 178 == 0;
#X obj 215 149 f;
#X obj 190 52 t f b;
#X obj 164 88 spigot;
#X obj 270 78 t b b;
#X msg 281 111 0;
#X floatatom 231 186 5 0 0 0 - - -;
#X obj 175 111 t b f;
#X obj 206 262 outlet;
#X text 105 7 key;
#X text 286 12 keyup;
#X text 103 47 float;
#X text 288 46 bang;
#X connect 0 0 4 0;
#X connect 1 0 6 0;
#X connect 2 0 5 1;
#X connect 3 0 2 0;
#X connect 3 0 8 0;
#X connect 3 0 10 0;
#X connect 4 0 5 0;
#X connect 4 1 3 0;
#X connect 5 0 9 0;
#X connect 6 0 3 0;
#X connect 6 1 7 0;
#X connect 7 0 3 1;
#X connect 9 0 3 0;
#X connect 9 1 3 1;
#X restore 356 181 pd nt;
#N canvas 605 323 450 300 nt 0;
#X obj 102 27 inlet;
#X obj 283 29 inlet;
#X obj 162 178 == 0;
#X obj 215 149 f;
#X obj 190 52 t f b;
#X obj 164 88 spigot;
#X obj 270 78 t b b;
#X msg 281 111 0;
#X floatatom 231 186 5 0 0 0 - - -;
#X obj 175 111 t b f;
#X obj 206 262 outlet;
#X text 105 7 key;
#X text 286 12 keyup;
#X text 103 47 float;
#X text 288 46 bang;
#X connect 0 0 4 0;
#X connect 1 0 6 0;
#X connect 2 0 5 1;
#X connect 3 0 2 0;
#X connect 3 0 8 0;
#X connect 3 0 10 0;
#X connect 4 0 5 0;
#X connect 4 1 3 0;
#X connect 5 0 9 0;
#X connect 6 0 3 0;
#X connect 6 1 7 0;
#X connect 7 0 3 1;
#X connect 9 0 3 0;
#X connect 9 1 3 1;
#X restore 390 181 pd nt;
#X obj 7 200 s inputkey;
#N canvas 213 355 450 300 keydisplay 0;
#X obj 263 60 != 0;
#X obj 197 52 t f f;
#X obj 197 35 r inputkey;
#X obj 157 242 s currentkey;
#X obj 11 119 sel 1;
#X obj 45 119 sel 2;
#X msg 11 150 symbol C;
#X msg 79 150 symbol D;
#X msg 113 172 symbol Eb;
#X msg 147 150 symbol E;
#X msg 181 172 symbol F;
#X msg 249 172 symbol G;
#X msg 317 172 symbol A;
#X msg 351 150 symbol Bb;
#X msg 385 172 symbol B;
#X obj 211 81 spigot;
#X obj 79 119 sel 3;
#X obj 113 119 sel 4;
#X obj 147 119 sel 5;
#X obj 181 119 sel 6;
#X obj 215 119 sel 7;
#X obj 249 119 sel 8;
#X obj 283 119 sel 9;
#X obj 317 119 sel 10;
#X obj 357 119 sel 11;
#X obj 397 119 sel 12;
#X msg 280 241 \; cnv_note_name label \$1;
#X msg 45 172 symbol Db;
#X msg 215 150 symbol Gb;
#X msg 283 150 symbol Ab;
#X connect 0 0 15 1;
#X connect 1 0 15 0;
#X connect 1 1 0 0;
#X connect 2 0 1 0;
#X connect 4 0 6 0;
#X connect 5 0 27 0;
#X connect 6 0 3 0;
#X connect 6 0 26 0;
#X connect 7 0 3 0;
#X connect 7 0 26 0;
#X connect 8 0 3 0;
#X connect 8 0 26 0;
#X connect 9 0 3 0;
#X connect 9 0 26 0;
#X connect 10 0 3 0;
#X connect 10 0 26 0;
#X connect 11 0 3 0;
#X connect 11 0 26 0;
#X connect 12 0 3 0;
#X connect 12 0 26 0;
#X connect 13 0 3 0;
#X connect 13 0 26 0;
#X connect 14 0 3 0;
#X connect 14 0 26 0;
#X connect 15 0 4 0;
#X connect 15 0 5 0;
#X connect 15 0 16 0;
#X connect 15 0 17 0;
#X connect 15 0 18 0;
#X connect 15 0 19 0;
#X connect 15 0 20 0;
#X connect 15 0 21 0;
#X connect 15 0 22 0;
#X connect 15 0 23 0;
#X connect 15 0 24 0;
#X connect 15 0 25 0;
#X connect 16 0 7 0;
#X connect 17 0 8 0;
#X connect 18 0 9 0;
#X connect 19 0 10 0;
#X connect 20 0 28 0;
#X connect 21 0 11 0;
#X connect 22 0 29 0;
#X connect 23 0 12 0;
#X connect 24 0 13 0;
#X connect 25 0 14 0;
#X connect 27 0 3 0;
#X connect 27 0 26 0;
#X connect 28 0 3 0;
#X connect 28 0 26 0;
#X connect 29 0 3 0;
#X connect 29 0 26 0;
#X restore 193 257 pd keydisplay;
#X text 8 276 s: inputkey \, currentkey;
#X floatatom 38 261 3 0 0 0 - inputkey -;
#X symbolatom 103 259 3 0 0 0 - currentkey -;
#X obj 223 31 - 95;
#X obj 223 113 - 95;
#X obj 14 74 sel 13;
#X obj 15 156 sel 13;
#N canvas 163 62 450 300 midsnd 0;
#X obj 78 203 noteout;
#X obj 80 144 makenote;
#X floatatom 156 104 8 0 0 0 - - -;
#X msg 177 180 127;
#X msg 244 183 300;
#X floatatom 36 174 5 0 0 0 - - -;
#X obj 81 98 + 36;
#X obj 70 55 r pedal_note;
#X obj 97 80 bng 15 250 50 0 empty empty empty 17 7 0 10 -262144 -1
-1;
#X connect 1 0 0 0;
#X connect 1 0 5 0;
#X connect 1 1 0 1;
#X connect 2 0 1 0;
#X connect 3 0 1 1;
#X connect 4 0 1 2;
#X connect 6 0 2 0;
#X connect 7 0 6 0;
#X connect 7 0 8 0;
#X restore 289 40 pd midsnd;
#X connect 1 0 42 0;
#X connect 1 0 74 0;
#X connect 2 0 0 0;
#X connect 2 0 73 0;
#X connect 4 0 17 0;
#X connect 4 0 18 0;
#X connect 4 0 19 0;
#X connect 4 0 20 0;
#X connect 4 0 21 0;
#X connect 4 0 22 0;
#X connect 4 0 23 0;
#X connect 4 0 24 0;
#X connect 4 0 25 0;
#X connect 4 0 26 0;
#X connect 4 0 27 0;
#X connect 4 0 75 0;
#X connect 5 0 56 0;
#X connect 6 0 57 0;
#X connect 7 0 58 0;
#X connect 8 0 59 0;
#X connect 9 0 60 0;
#X connect 10 0 61 0;
#X connect 11 0 62 0;
#X connect 12 0 63 0;
#X connect 13 0 64 0;
#X connect 14 0 65 0;
#X connect 15 0 66 0;
#X connect 16 0 67 0;
#X connect 17 0 16 0;
#X connect 18 0 15 0;
#X connect 19 0 14 0;
#X connect 20 0 13 0;
#X connect 21 0 12 0;
#X connect 22 0 11 0;
#X connect 23 0 10 0;
#X connect 24 0 9 0;
#X connect 25 0 8 0;
#X connect 26 0 7 0;
#X connect 27 0 6 0;
#X connect 30 0 31 0;
#X connect 30 0 32 0;
#X connect 30 0 33 0;
#X connect 30 0 34 0;
#X connect 30 0 35 0;
#X connect 30 0 36 0;
#X connect 30 0 37 0;
#X connect 30 0 38 0;
#X connect 30 0 39 0;
#X connect 30 0 40 0;
#X connect 30 0 41 0;
#X connect 30 0 76 0;
#X connect 31 0 67 1;
#X connect 32 0 66 1;
#X connect 33 0 65 1;
#X connect 34 0 64 1;
#X connect 35 0 63 1;
#X connect 36 0 62 1;
#X connect 37 0 61 1;
#X connect 38 0 60 1;
#X connect 39 0 59 1;
#X connect 40 0 58 1;
#X connect 41 0 57 1;
#X connect 56 0 44 0;
#X connect 56 0 68 0;
#X connect 57 0 68 0;
#X connect 57 0 45 0;
#X connect 58 0 68 0;
#X connect 58 0 46 0;
#X connect 59 0 68 0;
#X connect 59 0 47 0;
#X connect 60 0 68 0;
#X connect 60 0 48 0;
#X connect 61 0 68 0;
#X connect 61 0 49 0;
#X connect 62 0 68 0;
#X connect 62 0 50 0;
#X connect 63 0 68 0;
#X connect 63 0 51 0;
#X connect 64 0 68 0;
#X connect 64 0 52 0;
#X connect 65 0 68 0;
#X connect 65 0 53 0;
#X connect 66 0 68 0;
#X connect 66 0 54 0;
#X connect 67 0 68 0;
#X connect 67 0 55 0;
#X connect 73 0 3 0;
#X connect 73 0 4 0;
#X connect 74 0 29 0;
#X connect 74 0 30 0;
#X connect 75 0 5 0;
#X connect 76 0 56 1;
#X restore 383 278 pd guts;
#X obj 82 34 cnv 15 40 200 empty cnv_a empty 20 12 0 14 -195568 -262144
0;
#X obj 123 34 cnv 15 40 200 empty cnv_c empty 20 12 0 14 -262144 -262144
0;
#X obj 164 34 cnv 15 40 200 empty cnv_e empty 20 12 0 14 -195568 -262144
0;
#X obj 205 34 cnv 15 40 200 empty cnv_f empty 20 12 0 14 -262144 -262144
0;
#X obj 246 34 cnv 15 40 200 empty cnv_h empty 20 12 0 14 -195568 -262144
0;
#X obj 287 34 cnv 15 40 200 empty cnv_j empty 20 12 0 14 -262144 -262144
0;
#X obj 328 34 cnv 15 40 200 empty cnv_l empty 20 12 0 14 -195568 -262144
0;
#X obj 312 34 cnv 15 30 120 empty cnv_k empty 20 12 0 14 -33289 -262144
0;
#X obj 270 34 cnv 15 30 120 empty cnv_i empty 20 12 0 14 -33289 -262144
0;
#X obj 149 34 cnv 15 30 120 empty cnv_d empty 20 12 0 14 -33289 -262144
0;
#X obj 107 34 cnv 15 30 120 empty cnv_b empty 20 12 0 14 -33289 -262144
0;
#X obj 230 34 cnv 15 30 120 empty cnv_g empty 20 12 0 14 -33289 -262144
0;
#X obj 189 251 cnv 15 48 48 empty cnv_note_name Gb 20 12 0 50 -262144
-66577 0;
