#N canvas 18 334 450 332 10;
#X obj 8 -5 bng 50 150 50 0 empty downbeat empty 17 7 0 10 -262144
-1 -1;
#N canvas 501 221 596 431 guts 1;
#X obj 59 63 i;
#X obj 85 63 + 1;
#X floatatom 52 88 5 0 0 0 - - -;
#X msg 74 43 0;
#X obj 91 107 sel 0;
#X obj 118 50 + 2;
#X msg 206 75 number \$1;
#X msg 151 72 size \$1;
#X obj 151 51 expr 200 / $f1;
#X obj 60 25 r beat;
#X obj 56 128 s downbeat;
#X obj 387 98 sel 0;
#X obj 426 38 + 2;
#X msg 487 86 number \$1;
#X msg 425 81 size \$1;
#X obj 425 60 expr 200 / $f1;
#X obj 381 124 s downmeasure;
#X obj 91 85 %;
#X obj 387 78 %;
#X obj 352 57 i;
#X obj 378 57 + 1;
#X floatatom 349 81 5 0 0 0 - - -;
#X msg 367 37 0;
#X obj 353 19 r downbeat;
#X obj 89 330 sel 0;
#X obj 128 270 + 2;
#X msg 194 329 number \$1;
#X msg 127 320 size \$1;
#X obj 127 299 expr 200 / $f1;
#X obj 129 249 r _phrase_radio_input;
#X obj 151 348 s _r_phrase;
#X obj 89 310 %;
#X obj 54 285 i;
#X obj 80 289 + 1;
#X floatatom 51 313 5 0 0 0 - - -;
#X msg 69 269 0;
#X obj 38 249 r downmeasure;
#X obj 45 355 s downphrase;
#X obj 127 127 s _r_beat;
#X obj 125 30 r _beat_radio_input;
#X obj 471 127 s _r_measure;
#X obj 427 17 r _measure_radio_input;
#X obj 368 249 loadbang;
#X msg 393 270 \; _r_beat_radio_input 1 \; _r_measure_radio_input 2
\; _r_phrase_radio_input 3 \;;
#X obj 328 290 delay 300;
#X msg 349 331 \; _r_beat_radio_input 0 \; _r_measure_radio_input 0
\; _r_phrase_radio_input 0 \;;
#X obj 259 186 r BEAT_RESET;
#X obj 259 205 r MASTER_RESET;
#X obj 200 127 s beat_number;
#X obj 448 152 s measure_number;
#X obj 153 384 s phrase_number;
#X obj 36 152 s beat_position;
#X obj 324 152 s measure_position;
#X obj 26 388 s phrase_position;
#X msg 36 44 bang;
#X connect 0 0 1 0;
#X connect 0 0 2 0;
#X connect 0 0 17 0;
#X connect 0 0 48 0;
#X connect 1 0 0 1;
#X connect 3 0 0 1;
#X connect 4 0 10 0;
#X connect 5 0 6 0;
#X connect 5 0 8 0;
#X connect 5 0 17 1;
#X connect 6 0 38 0;
#X connect 7 0 38 0;
#X connect 8 0 7 0;
#X connect 9 0 54 0;
#X connect 11 0 16 0;
#X connect 12 0 13 0;
#X connect 12 0 15 0;
#X connect 12 0 18 1;
#X connect 13 0 40 0;
#X connect 14 0 40 0;
#X connect 15 0 14 0;
#X connect 17 0 4 0;
#X connect 17 0 38 0;
#X connect 17 0 51 0;
#X connect 18 0 11 0;
#X connect 18 0 40 0;
#X connect 18 0 52 0;
#X connect 19 0 20 0;
#X connect 19 0 21 0;
#X connect 19 0 18 0;
#X connect 19 0 49 0;
#X connect 20 0 19 1;
#X connect 22 0 19 1;
#X connect 23 0 19 0;
#X connect 24 0 37 0;
#X connect 25 0 26 0;
#X connect 25 0 28 0;
#X connect 25 0 31 1;
#X connect 26 0 30 0;
#X connect 27 0 30 0;
#X connect 28 0 27 0;
#X connect 29 0 25 0;
#X connect 31 0 24 0;
#X connect 31 0 30 0;
#X connect 31 0 53 0;
#X connect 32 0 33 0;
#X connect 32 0 34 0;
#X connect 32 0 31 0;
#X connect 32 0 50 0;
#X connect 33 0 32 1;
#X connect 35 0 32 1;
#X connect 36 0 32 0;
#X connect 39 0 5 0;
#X connect 41 0 12 0;
#X connect 42 0 44 0;
#X connect 44 0 45 0;
#X connect 46 0 3 0;
#X connect 46 0 22 0;
#X connect 46 0 35 0;
#X connect 47 0 3 0;
#X connect 47 0 22 0;
#X connect 47 0 35 0;
#X connect 54 0 0 0;
#X restore 160 205 pd guts;
#X obj 73 15 hradio 15 1 0 8 _beat_radio_input _r_beat_radio_input
empty 0 -8 0 10 -262144 -1 -1 0;
#X text 77 -2 2 3;
#X text 107 -2 4 5;
#X text 138 -2 6 7;
#X text 168 -2 8 9;
#X obj 6 69 cnv 15 200 16 empty empty empty 20 12 0 14 -1 -66577 0
;
#X obj 73 135 hradio 15 1 0 8 _measure_radio_input _r_measure_radio_input
empty 0 -8 0 10 -262144 -1 -1 0;
#X text 77 118 2 3;
#X text 107 118 4 5;
#X text 138 118 6 7;
#X text 168 118 8 9;
#X obj 8 111 bng 50 150 50 0 empty downmeasure empty 17 7 0 10 -262144
-1 -1;
#X obj 75 251 hradio 15 1 0 8 _phrase_radio_input _r_phrase_radio_input
empty 0 -8 0 10 -262144 -1 -1 0;
#X text 79 234 2 3;
#X text 109 234 4 5;
#X text 140 234 6 7;
#X text 170 234 8 9;
#X obj 9 229 bng 50 150 50 0 empty downphrase empty 17 7 0 10 -262144
-1 -1;
#X obj 6 189 cnv 15 200 16 empty empty empty 20 12 0 14 -1 -66577 0
;
#X obj 215 185 hradio 100 1 0 2 empty _r_phrase empty 0 -8 0 10 -262144
-1 -1 0;
#X obj 215 85 hradio 100 1 0 2 empty _r_measure empty 0 -8 0 10 -262144
-1 -1 1;
#X obj 215 -14 hradio 100 1 0 2 empty _r_beat empty 0 -8 0 10 -262144
-1 -1 1;
#X floatatom 67 48 1 0 0 0 - beat_position NULL2gj3if93;
#X floatatom 67 169 1 0 0 0 - measure_position NULL2gj3if93;
#X floatatom 70 280 1 0 0 0 - phrase_position NULL2gj3if93;
#X floatatom 167 48 6 0 0 0 - beat_number NULL2gj3if93;
#X floatatom 168 169 6 0 0 0 - measure_number NULL2gj3if93;
#X floatatom 167 281 6 0 0 0 - phrase_number NULL2gj3if93;
