#N canvas 131 80 450 300 10;
#X obj 98 14 hradio 33 1 0 6 empty _r_measure empty 0 -8 0 10 -262144
-1 -1 0;
#X obj 22 37 bng 50 150 50 0 empty downbeat empty 17 7 0 10 -262144
-1 -1;
#N canvas 431 263 450 300 guts 0;
#X obj 16 60 i;
#X obj 42 60 + 1;
#X floatatom 16 88 5 0 0 0 - - -;
#X msg 31 40 0;
#X obj 54 148 sel 0;
#X obj 98 89 + 2;
#X obj 111 195 s _r_measure;
#X msg 110 164 number \$1;
#X msg 100 141 size \$1;
#X obj 100 120 expr 200 / $f1;
#X obj 17 22 r beat;
#X obj 29 188 s downbeat;
#X obj 80 33 r _measure_radio_input;
#X obj 262 127 sel 0;
#X obj 300 61 + 2;
#X msg 341 150 number \$1;
#X msg 331 127 size \$1;
#X obj 331 106 expr 200 / $f1;
#X obj 301 33 r _phrase_radio_input;
#X obj 342 181 s _r_phrase;
#X obj 224 171 s downmeasure;
#X obj 54 128 %;
#X obj 262 107 %;
#X obj 236 63 i;
#X obj 262 63 + 1;
#X floatatom 233 87 5 0 0 0 - - -;
#X msg 251 43 0;
#X obj 237 25 r downbeat;
#X connect 0 0 1 0;
#X connect 0 0 2 0;
#X connect 0 0 21 0;
#X connect 1 0 0 1;
#X connect 3 0 0 1;
#X connect 4 0 11 0;
#X connect 5 0 7 0;
#X connect 5 0 9 0;
#X connect 5 0 21 1;
#X connect 7 0 6 0;
#X connect 8 0 6 0;
#X connect 9 0 8 0;
#X connect 10 0 0 0;
#X connect 12 0 5 0;
#X connect 13 0 20 0;
#X connect 14 0 15 0;
#X connect 14 0 17 0;
#X connect 14 0 22 1;
#X connect 15 0 19 0;
#X connect 16 0 19 0;
#X connect 17 0 16 0;
#X connect 18 0 14 0;
#X connect 21 0 4 0;
#X connect 21 0 6 0;
#X connect 22 0 13 0;
#X connect 22 0 19 0;
#X connect 23 0 24 0;
#X connect 23 0 25 0;
#X connect 23 0 22 0;
#X connect 24 0 23 1;
#X connect 26 0 23 1;
#X connect 27 0 23 0;
#X restore 382 270 pd guts;
#X obj 317 55 hradio 15 1 0 8 _measure_radio_input empty empty 0 -8
0 10 -262144 -1 -1 4;
#X text 321 38 2 3;
#X text 351 38 4 5;
#X text 382 38 6 7;
#X text 412 38 8 9;
#X obj 25 135 cnv 15 400 16 empty empty empty 20 12 0 14 -1 -66577
0;
#X obj 316 219 hradio 15 1 0 8 _phrase_radio_input empty empty 0 -8
0 10 -262144 -1 -1 3;
#X text 320 202 2 3;
#X text 350 202 4 5;
#X text 381 202 6 7;
#X text 411 202 8 9;
#X obj 94 171 hradio 40 1 0 5 empty _r_phrase empty 0 -8 0 10 -262144
-1 -1 4;
#X obj 22 200 bng 50 150 50 0 empty downmeasure empty 17 7 0 10 -262144
-1 -1;
