#N canvas 397 90 450 300 36;
#N canvas 531 319 450 300 guts 0;
#X obj 238 69 random;
#X obj 12 6 r beat;
#X obj 27 176 s _store1;
#X obj 16 120 f;
#X obj 19 230 s random_int;
#X obj 14 56 t b b b;
#X obj 95 121 f;
#X obj 241 179 s _store2;
#X obj 240 125 f;
#X obj 187 10 r _max_r_in;
#N canvas 699 260 450 300 ld 0;
#X obj 11 77 loadbang;
#X msg 12 201 \; _r_max_r_in 2 \;;
#X obj 146 10 r _r_radio_in;
#X obj 250 71 + 2;
#X obj 151 143 s _r_max_r_in;
#X connect 0 0 1 0;
#X connect 2 0 3 0;
#X connect 3 0 4 0;
#X restore 316 239 pd ld;
#X connect 0 0 8 0;
#X connect 1 0 5 0;
#X connect 3 0 4 0;
#X connect 5 0 0 0;
#X connect 5 1 6 0;
#X connect 5 2 3 0;
#X connect 6 0 2 0;
#X connect 6 0 3 1;
#X connect 8 0 6 1;
#X connect 8 0 7 0;
#X connect 9 0 0 1;
#X restore 286 245 pd guts;
#X floatatom 192 102 3 0 0 0 - _store1 -;
#X floatatom 65 63 3 0 0 0 - _r_max_r_in _max_r_in;
#X obj 318 69 bng 30 250 50 0 empty beat beat 34 15 0 32 -262144 -1
-1;
#X floatatom 193 198 3 0 0 0 - _store2 -;
#X floatatom 191 9 3 0 0 0 - random_int -;
#X text 212 152 ^;
#X text 212 56 ^;
#X text 3 218 random;
#X text 42 253 _int;
#X obj 43 61 vradio 10 1 0 9 _r_radio_in empty empty 0 -8 0 10 -262144
-1 -1 8;
#X text 64 107 top;
