#N canvas 557 238 450 300 10;
#X obj 17 17 vradio 30 1 0 4 _sector_input_unit _r_sector_input_unit
empty 0 -8 0 10 -262144 -1 -1 0;
#X text 53 23 beat;
#X text 54 54 measure;
#X text 54 83 phrase;
#X obj 168 71 hradio 15 1 0 8 _sector_radio_in _r_sector_radio_in empty
0 -8 0 10 -262144 -1 -1 2;
#X text 172 54 2 3;
#X text 201 54 4 5;
#X text 233 54 6 7;
#X text 263 54 8 9;
#N canvas 143 182 456 482 guts 0;
#X obj 98 21 + 2;
#X msg 187 46 number \$1;
#X msg 131 43 size \$1;
#X obj 131 22 expr 200 / $f1;
#X obj 102 1 r _sector_radio_in;
#X obj 127 68 s _r_sector_length;
#X floatatom 90 44 5 0 0 0 - - -;
#X obj 9 65 s _sector_length;
#X obj 159 335 i;
#X obj 182 335 + 1;
#X obj 183 258 metro;
#X obj 294 155 - 1;
#X obj 208 379 sel;
#X obj 292 121 r _sector_length;
#X obj 24 -17 loadbang;
#X msg 26 5 2;
#X obj 42 106 r beat;
#X obj 41 153 timer;
#X obj 41 132 t b b;
#X floatatom 60 197 5 0 0 0 - - -;
#X obj 79 327 bng 15 250 50 0 empty empty empty 17 7 0 10 -262144 -1
-1;
#X obj 108 262 /;
#X obj 118 170 r _sector_radio_in;
#X obj 137 228 + 2;
#X floatatom 112 290 5 0 0 0 - - -;
#X floatatom 152 379 5 0 0 0 - - -;
#X obj 237 105 r beat;
#X obj 280 209 i;
#X obj 265 186 bng 15 250 50 0 empty empty empty 17 7 0 10 -262144
-1 -1;
#X obj 13 379 s _r_sector_length;
#X obj 208 418 s _just_before;
#X obj 97 -19 s _r_sector_radio_in;
#X obj 26 26 delay 100;
#X floatatom 304 232 5 0 0 0 - - -;
#X obj 40 191 bng 15 250 50 0 empty empty empty 17 7 0 10 -262144 -1
-1;
#X floatatom 37 271 5 0 0 0 - - -;
#X obj 97 201 t b b f;
#X obj 109 227 bng 15 250 50 0 empty empty empty 17 7 0 10 -262144
-1 -1;
#X obj 168 217 t b 1 0 f b;
#X msg 177 308 -1;
#X obj 272 356 s sector;
#X connect 0 0 1 0;
#X connect 0 0 3 0;
#X connect 0 0 6 0;
#X connect 0 0 7 0;
#X connect 1 0 5 0;
#X connect 2 0 5 0;
#X connect 3 0 2 0;
#X connect 4 0 0 0;
#X connect 8 0 9 0;
#X connect 8 0 12 0;
#X connect 8 0 25 0;
#X connect 8 0 29 0;
#X connect 8 0 40 0;
#X connect 9 0 8 1;
#X connect 10 0 20 0;
#X connect 10 0 8 0;
#X connect 11 0 27 1;
#X connect 12 0 30 0;
#X connect 13 0 11 0;
#X connect 14 0 15 0;
#X connect 15 0 31 0;
#X connect 15 0 32 0;
#X connect 16 0 18 0;
#X connect 17 0 19 0;
#X connect 17 0 21 0;
#X connect 17 0 34 0;
#X connect 18 0 17 0;
#X connect 18 1 17 1;
#X connect 21 0 24 0;
#X connect 21 0 38 0;
#X connect 22 0 36 0;
#X connect 23 0 21 1;
#X connect 23 0 35 0;
#X connect 26 0 28 0;
#X connect 27 0 12 1;
#X connect 27 0 33 0;
#X connect 28 0 27 0;
#X connect 32 0 0 0;
#X connect 36 0 21 0;
#X connect 36 1 37 0;
#X connect 36 2 23 0;
#X connect 38 1 10 0;
#X connect 38 2 10 0;
#X connect 38 3 10 1;
#X connect 38 4 39 0;
#X connect 39 0 8 1;
#X restore 369 267 pd guts;
#X obj 126 104 hradio 50 1 0 4 empty _r_sector_length empty 0 -8 0
10 -262144 -1 -1 0;
#N canvas 545 199 450 465 feed_guts 0;
#X floatatom 161 194 8 0 0 0 - - -;
#X obj 147 146 t b b;
#X obj 20 13 r beat;
#X obj 92 51 r _sector_input_unit;
#X obj 29 73 sel 0;
#X obj 94 77 sel 1;
#X obj 166 72 sel 2;
#X msg 41 101 0;
#X msg 13 99 1;
#X obj 19 130 spigot;
#X obj 93 123 spigot;
#X obj 153 123 spigot;
#X msg 114 103 0;
#X msg 86 101 1;
#X msg 176 97 0;
#X msg 148 95 1;
#X obj 73 14 r downbeat;
#X obj 140 14 r downmeasure;
#X obj 212 120 spigot;
#X msg 238 98 0;
#X msg 210 96 1;
#X obj 228 73 sel 3;
#X obj 227 15 r downphrase;
#X obj 90 349 timer;
#X floatatom 111 383 8 0 0 0 - - -;
#X obj 90 328 t b b;
#X obj 28 233 r _sector_input_unit;
#X msg 42 276 0;
#X msg 14 274 1;
#X obj 20 305 spigot;
#X obj 94 298 spigot;
#X obj 154 298 spigot;
#X msg 115 278 0;
#X msg 87 276 1;
#X msg 177 272 0;
#X msg 149 270 1;
#X obj 213 295 spigot;
#X msg 239 273 0;
#X msg 211 271 1;
#X obj 30 248 sel 1;
#X obj 95 252 sel 2;
#X obj 167 247 sel 3;
#X obj 229 248 sel 4;
#X obj 308 94 r _measure_radio_input;
#X obj 314 33 r _beat_radio_input;
#X obj 311 158 r _phrase_radio_input;
#X obj 314 50 + 2;
#X obj 308 111 + 2;
#X obj 311 175 + 2;
#X obj 297 195 f;
#X obj 294 133 f;
#X obj 299 70 f;
#X obj 260 226 s _bpm;
#X obj 147 167 timer;
#X obj 340 365 sel 0;
#X connect 1 0 53 0;
#X connect 1 1 53 1;
#X connect 2 0 9 0;
#X connect 2 0 29 0;
#X connect 3 0 4 0;
#X connect 3 0 5 0;
#X connect 3 0 6 0;
#X connect 3 0 21 0;
#X connect 4 0 8 0;
#X connect 4 0 7 0;
#X connect 4 0 51 0;
#X connect 5 0 13 0;
#X connect 5 0 12 0;
#X connect 5 0 50 0;
#X connect 6 0 15 0;
#X connect 6 0 14 0;
#X connect 6 0 49 0;
#X connect 7 0 10 1;
#X connect 7 0 11 1;
#X connect 7 0 18 1;
#X connect 8 0 9 1;
#X connect 9 0 1 0;
#X connect 10 0 1 0;
#X connect 11 0 1 0;
#X connect 12 0 9 1;
#X connect 12 0 11 1;
#X connect 12 0 18 1;
#X connect 13 0 10 1;
#X connect 14 0 10 1;
#X connect 14 0 9 1;
#X connect 14 0 18 1;
#X connect 15 0 11 1;
#X connect 16 0 10 0;
#X connect 16 0 30 0;
#X connect 17 0 11 0;
#X connect 17 0 31 0;
#X connect 19 0 11 1;
#X connect 19 0 10 1;
#X connect 19 0 9 1;
#X connect 20 0 18 1;
#X connect 21 0 20 0;
#X connect 21 0 19 0;
#X connect 22 0 18 0;
#X connect 22 0 36 0;
#X connect 23 0 24 0;
#X connect 25 0 23 0;
#X connect 25 1 23 1;
#X connect 26 0 39 0;
#X connect 26 0 40 0;
#X connect 26 0 41 0;
#X connect 26 0 42 0;
#X connect 27 0 30 1;
#X connect 27 0 31 1;
#X connect 27 0 36 1;
#X connect 28 0 29 1;
#X connect 29 0 25 0;
#X connect 30 0 25 0;
#X connect 31 0 25 0;
#X connect 32 0 29 1;
#X connect 32 0 31 1;
#X connect 32 0 36 1;
#X connect 33 0 30 1;
#X connect 34 0 30 1;
#X connect 34 0 29 1;
#X connect 34 0 36 1;
#X connect 35 0 31 1;
#X connect 37 0 31 1;
#X connect 37 0 30 1;
#X connect 37 0 29 1;
#X connect 38 0 36 1;
#X connect 39 0 28 0;
#X connect 39 0 27 0;
#X connect 40 0 33 0;
#X connect 40 0 32 0;
#X connect 41 0 35 0;
#X connect 41 0 34 0;
#X connect 42 0 38 0;
#X connect 42 0 37 0;
#X connect 43 0 47 0;
#X connect 44 0 46 0;
#X connect 45 0 48 0;
#X connect 46 0 51 1;
#X connect 47 0 50 1;
#X connect 48 0 49 1;
#X connect 49 0 52 0;
#X connect 50 0 52 0;
#X connect 51 0 52 0;
#X connect 53 0 0 0;
#X restore 16 143 pd feed_guts;
#X floatatom 293 71 5 0 0 0 - _sector_length NULL593tosoTe3;
#X obj 17 248 random 7;
#X obj 17 269 s _r_sector_radio_in;
#X obj 17 208 r _just_before;
#X obj 17 228 spigot;
#X obj 50 180 tgl 15 0 empty empty empty 17 7 0 10 -262144 -1 -1 0
1;
#N canvas 817 23 450 300 measure_interpereter 0;
#X obj 170 11 r _r_measure;
#X obj 70 14 r _r_beat;
#X text 21 275 naming conventions;
#X obj 287 7 r _r_phrase;
#X obj 66 46 expr $f1 && $f2;
#X obj 278 40 expr $f1 && $f2;
#X obj 174 44 expr $f1 && $f2;
#X floatatom 180 111 5 0 0 0 - - -;
#X floatatom 65 110 5 0 0 0 - - -;
#X floatatom 288 108 5 0 0 0 - - -;
#X floatatom 33 15 5 0 0 0 - - -;
#X floatatom 137 12 5 0 0 0 - - -;
#X floatatom 254 8 5 0 0 0 - - -;
#X obj 64 65 expr $f1 || $f2;
#X floatatom 73 88 5 0 0 0 - - -;
#X obj 173 63 expr $f1 || $f2;
#X floatatom 192 86 5 0 0 0 - - -;
#X obj 278 61 expr $f1 || $f2;
#X floatatom 296 85 5 0 0 0 - - -;
#X floatatom 303 155 5 0 0 0 - - -;
#X floatatom 156 155 5 0 0 0 - - -;
#X floatatom 14 154 5 0 0 0 - - -;
#X obj 29 155 expr (pow(2 \, $f1)-1);
#X obj 164 210 expr ($f1 + $f2 + $f3);
#X floatatom 162 237 5 0 0 0 - - -;
#X obj 173 155 expr (pow(3 \, $f1)-1);
#X obj 316 155 expr (pow(5 \, $f1)-1);
#X obj 137 266 s binary_to_decimal_beat;
#X obj 19 214 expr ($f1 + $f2);
#X connect 0 0 4 1;
#X connect 0 0 5 0;
#X connect 0 0 11 0;
#X connect 0 0 13 1;
#X connect 0 0 17 0;
#X connect 0 0 25 0;
#X connect 1 0 4 0;
#X connect 1 0 6 0;
#X connect 1 0 10 0;
#X connect 1 0 13 0;
#X connect 1 0 15 0;
#X connect 1 0 22 0;
#X connect 3 0 5 1;
#X connect 3 0 6 1;
#X connect 3 0 12 0;
#X connect 3 0 17 1;
#X connect 3 0 15 1;
#X connect 3 0 26 0;
#X connect 4 0 8 0;
#X connect 5 0 9 0;
#X connect 6 0 7 0;
#X connect 13 0 14 0;
#X connect 15 0 16 0;
#X connect 17 0 18 0;
#X connect 22 0 21 0;
#X connect 22 0 23 0;
#X connect 22 0 28 0;
#X connect 23 0 24 0;
#X connect 23 0 27 0;
#X connect 25 0 20 0;
#X connect 25 0 23 1;
#X connect 25 0 28 1;
#X connect 26 0 19 0;
#X connect 26 0 23 2;
#X restore 210 179 pd measure_interpereter;
#N canvas 398 23 446 336 feed_manager 0;
#X obj 82 69 sel 1;
#X obj 84 138 sel 1;
#X obj 10 228 s _r_sector_radio_in;
#X obj 28 214 f;
#X obj 81 214 f;
#X obj 134 211 f;
#X obj 187 211 f;
#X obj 227 213 f;
#X obj 280 213 f;
#X obj 333 210 f;
#X obj 386 210 f;
#X obj 13 90 loadbang;
#X obj 3 140 bng 15 250 50 0 empty empty empty 17 7 0 10 -262144 -1
-1;
#N canvas 55 32 450 300 on_load 0;
#X obj 174 28 loadbang;
#X msg 131 145 \; binary_to_decimal_beat 0 1 2 3 4 5 6 7;
#X restore 8 18 pd on_load;
#X floatatom 44 265 5 0 0 0 - - -;
#X floatatom 88 265 5 0 0 0 - - -;
#X floatatom 135 263 5 0 0 0 - - -;
#X floatatom 192 262 5 0 0 0 - - -;
#X floatatom 236 261 5 0 0 0 - - -;
#X floatatom 287 262 5 0 0 0 - - -;
#X floatatom 337 261 5 0 0 0 - - -;
#X floatatom 389 264 5 0 0 0 - - -;
#X obj 7 176 bng 15 250 50 0 empty empty empty 17 7 0 10 -262144 -1
-1;
#X obj 68 87 bng 15 250 50 0 empty empty empty 17 7 0 10 -262144 -1
-1;
#X obj 96 89 bng 15 250 50 0 empty empty empty 17 7 0 10 -262144 -1
-1;
#X obj 142 93 bng 15 250 50 0 empty empty empty 17 7 0 10 -262144 -1
-1;
#X obj 198 90 bng 15 250 50 0 empty empty empty 17 7 0 10 -262144 -1
-1;
#X obj 241 88 bng 15 250 50 0 empty empty empty 17 7 0 10 -262144 -1
-1;
#X obj 135 19 r binary_to_decimal_beat;
#X floatatom 90 19 5 0 0 0 - - -;
#X obj 30 69 sel 1;
#X obj 35 48 == 0;
#X obj 126 47 == 2;
#X obj 132 70 sel 1;
#X obj 86 45 == 1;
#X obj 184 70 sel 1;
#X obj 227 69 sel 1;
#X obj 279 69 sel 1;
#X obj 329 70 sel 1;
#X obj 380 70 sel 1;
#X obj 180 44 == 3;
#X obj 231 41 == 4;
#X obj 271 43 == 5;
#X obj 328 44 == 6;
#X obj 368 46 == 7;
#X obj 39 115 == 0;
#X obj 130 114 == 2;
#X obj 90 112 == 1;
#X obj 184 111 == 3;
#X obj 235 108 == 4;
#X obj 275 110 == 5;
#X obj 332 111 == 6;
#X obj 372 113 == 7;
#X obj 32 138 sel 1;
#X obj 134 139 sel 1;
#X obj 186 139 sel 1;
#X obj 229 138 sel 1;
#X obj 281 138 sel 1;
#X obj 331 139 sel 1;
#X obj 384 141 sel 1;
#X obj 331 17 bng 15 250 50 0 empty empty empty 17 7 0 10 -262144 -1
-1;
#X obj 377 20 random 8;
#X obj 378 178 random 8;
#X obj 328 156 random 8;
#X obj 277 179 random 8;
#X obj 228 158 random 8;
#X obj 183 182 random 8;
#X obj 133 160 random 8;
#X obj 82 183 random 8;
#X obj 32 161 random 8;
#X obj 280 93 bng 15 250 50 0 empty empty empty 17 7 0 10 -262144 -1
-1;
#X obj 331 90 bng 15 250 50 0 empty empty empty 17 7 0 10 -262144 -1
-1;
#X obj 392 91 bng 15 250 50 0 empty empty empty 17 7 0 10 -262144 -1
-1;
#X msg 42 291 2;
#X msg 89 291 1;
#X msg 136 291 6;
#X msg 192 297 5;
#X msg 236 300 0;
#X msg 283 299 4;
#X msg 342 301 4;
#X msg 383 299 1;
#X connect 0 0 4 0;
#X connect 0 0 24 0;
#X connect 1 0 68 0;
#X connect 3 0 2 0;
#X connect 3 0 14 0;
#X connect 4 0 15 0;
#X connect 4 0 2 0;
#X connect 5 0 16 0;
#X connect 5 0 2 0;
#X connect 6 0 17 0;
#X connect 6 0 2 0;
#X connect 7 0 18 0;
#X connect 7 0 2 0;
#X connect 8 0 19 0;
#X connect 8 0 2 0;
#X connect 9 0 20 0;
#X connect 9 0 2 0;
#X connect 10 0 21 0;
#X connect 10 0 2 0;
#X connect 11 0 12 0;
#X connect 12 0 62 0;
#X connect 12 0 63 0;
#X connect 12 0 64 0;
#X connect 12 0 65 0;
#X connect 12 0 66 0;
#X connect 12 0 67 0;
#X connect 12 0 68 0;
#X connect 12 0 69 0;
#X connect 22 0 3 0;
#X connect 22 0 4 0;
#X connect 22 0 5 0;
#X connect 22 0 6 0;
#X connect 22 0 7 0;
#X connect 22 0 8 0;
#X connect 22 0 9 0;
#X connect 22 0 10 0;
#X connect 28 0 29 0;
#X connect 28 0 32 0;
#X connect 28 0 31 0;
#X connect 28 0 34 0;
#X connect 28 0 40 0;
#X connect 28 0 41 0;
#X connect 28 0 42 0;
#X connect 28 0 43 0;
#X connect 28 0 44 0;
#X connect 30 0 3 0;
#X connect 30 0 23 0;
#X connect 31 0 30 0;
#X connect 32 0 33 0;
#X connect 33 0 5 0;
#X connect 33 0 25 0;
#X connect 34 0 0 0;
#X connect 35 0 6 0;
#X connect 35 0 26 0;
#X connect 36 0 7 0;
#X connect 36 0 27 0;
#X connect 37 0 8 0;
#X connect 37 0 70 0;
#X connect 38 0 9 0;
#X connect 38 0 71 0;
#X connect 39 0 10 0;
#X connect 39 0 72 0;
#X connect 40 0 35 0;
#X connect 41 0 36 0;
#X connect 42 0 37 0;
#X connect 43 0 38 0;
#X connect 44 0 39 0;
#X connect 45 0 53 0;
#X connect 46 0 54 0;
#X connect 47 0 1 0;
#X connect 48 0 55 0;
#X connect 49 0 56 0;
#X connect 50 0 57 0;
#X connect 51 0 58 0;
#X connect 52 0 59 0;
#X connect 53 0 69 0;
#X connect 54 0 67 0;
#X connect 55 0 66 0;
#X connect 56 0 65 0;
#X connect 57 0 64 0;
#X connect 58 0 63 0;
#X connect 59 0 62 0;
#X connect 60 0 61 0;
#X connect 61 0 52 0;
#X connect 61 0 51 0;
#X connect 61 0 50 0;
#X connect 61 0 49 0;
#X connect 61 0 48 0;
#X connect 61 0 46 0;
#X connect 61 0 47 0;
#X connect 61 0 45 0;
#X connect 62 0 10 1;
#X connect 63 0 9 1;
#X connect 64 0 8 1;
#X connect 65 0 7 1;
#X connect 66 0 6 1;
#X connect 67 0 5 1;
#X connect 68 0 4 1;
#X connect 69 0 3 1;
#X restore 222 225 pd feed_manager;
#X text 175 273 returns: BANG sector_beat;
#X text 124 8 responds to: beat \, measure \, phrase;
#X connect 13 0 14 0;
#X connect 15 0 16 0;
#X connect 16 0 13 0;
#X connect 17 0 16 1;
